<svg xmlns="http://www.w3.org/2000/svg" viewBox="0 0 80.68 49.52"><g id="Camada_2" data-name="Camada 2"><g id="Camada_1-2" data-name="Camada 1"><path d="M1.54,40.48a15.6,15.6,0,0,0,29.31-3.62c2.15-.1,4.29,0,6.44-.07a4.41,4.41,0,0,0,3-1.22,54.47,54.47,0,0,0,4-4.45C48.67,26,53.22,21,57.87,16L59,19.59a15.45,15.45,0,1,0,3.24-1C61.06,14.79,60,11,58.74,7.16a17.6,17.6,0,0,0-2.38-5.37A4.87,4.87,0,0,0,53,.16,46.91,46.91,0,0,0,48.25,0,1.54,1.54,0,0,0,46.7,1.56v0h0a1.54,1.54,0,0,0,1.56,1.52h3.18a4.36,4.36,0,0,1,2.38.65,4,4,0,0,1,1,1.88c.35,1.14.65,2.3,1,3.44L28.49,9c-.36-1-.72-2-1.07-3,1.78-.39,3.56-.73,5.32-1.18a3.33,3.33,0,0,0,1.54-.7A1,1,0,0,0,34.05,3H20.36c0,1-.09,2-.13,3.08l3.67.07,1.4,2.19c-1.56,3.49-3.14,7-4.71,10.47A15.59,15.59,0,0,0,.22,31.18,15.38,15.38,0,0,0,1.54,40.48ZM60.07,22.89l1.08,3.47a8.34,8.34,0,1,0,4-1h-.7l-1.09-3.45a12.63,12.63,0,0,1,5.36.41A12.16,12.16,0,0,1,65.36,46.1,11.86,11.86,0,0,1,59,44.44a12.17,12.17,0,0,1,1.08-21.55ZM29.86,12.43H56.59q-9.5,10.38-19,20.73Q33.71,22.8,29.86,12.43ZM30,27.79a15.79,15.79,0,0,0-6.38-7.48c1-2.21,2-4.41,3-6.62L34.22,33.6h-3A15.64,15.64,0,0,0,30,27.79Zm-2.29,5.82h-4a8.31,8.31,0,0,0-3.16-6.5l1.65-3.66a12.17,12.17,0,0,1,5.51,10.19Zm-22.67-6a12.17,12.17,0,0,1,14.07-5.54c-.52,1.19-1.07,2.37-1.6,3.56a8.77,8.77,0,0,0-2.16-.28A8.34,8.34,0,1,0,23.1,36.86h4.22A12.15,12.15,0,1,1,5.06,27.61Z"/></g></g></svg>