<svg xmlns="http://www.w3.org/2000/svg" viewBox="0 0 188.81 200"><defs><style>.cls-1{fill-rule:evenodd;}</style></defs><g id="Camada_2" data-name="Camada 2"><g id="Camada_1-2" data-name="Camada 1"><path class="cls-1" d="M79.82,46.83c-2.06-3.24-.59-7.36-.59-7.36s4.13.88,6.19,4.12A11.26,11.26,0,0,1,86,50.37a26.89,26.89,0,0,0-4.42-6.78A24.08,24.08,0,0,0,85.13,51C83.65,50.37,81,49.19,79.82,46.83ZM115.17,48A29.29,29.29,0,0,1,119,43a48.41,48.41,0,0,1-2.36,5.6,6.28,6.28,0,0,0-1.18,1.77c1.18-.59,3.83-1.77,5.31-4.13,1.76-3.24.58-7.36.58-7.36s-4.41.88-6.18,4.12a9.67,9.67,0,0,0-.88,6.78ZM99,24.15a62.9,62.9,0,0,1,1.18,18.27c2.06-2.66,5.89-7.66,5.89-13.85C106,20.32,99,16.2,99,16.2s-7.36,4.12-7.36,12.37c0,6.19,3.82,11.19,5.89,13.85A62.13,62.13,0,0,1,99,24.15ZM49.78,48.6c5.3,3.24,11.78,2.36,14.73,1.77a52.66,52.66,0,0,1-15-10.31A71,71,0,0,1,66,48c-1.18-2.94-3.83-8.83-9.13-11.78-7.07-4.12-18.56-3.53-18.56-3.53S42.42,44.48,49.78,48.6ZM67.16,95.43c-5,3.24-10.9,6.48-16.5,8a68,68,0,0,1,15-10.31c-3.24-.59-9.42-1.18-14.72,1.77-7.37,4.12-10,12.37-10,12.37s10,4.41,17.09.29C63.33,104.27,66,98.38,67.16,95.43ZM142,35.35a53.36,53.36,0,0,1,16.5-8,58.39,58.39,0,0,1-15,10c3.24.59,9.42,1.47,14.72-1.77,7.37-4.12,6.48-12.67,6.48-12.67a14,14,0,0,0-13.55.3C145.8,26.22,143.15,32.11,142,35.35Zm-59.5-.3C78.06,28.28,73.93,20.32,71.87,13A86.64,86.64,0,0,1,85.71,33c.59-4.12,1.77-12.67-2.35-19.74C77.76,3.53,64.8,2.65,64.8,2.65S61,13.25,66.57,23C70.69,30,78.35,33.58,82.47,35.05ZM129,119.59c4.42,6.77,8.55,14.73,10.61,22.09a88.81,88.81,0,0,1-13.85-20.33c-.59,4.42-1.76,13,2.36,20a16,16,0,0,0,15.91,8,16,16,0,0,0,.88-17.68C140.8,124.59,133.14,121.06,129,119.59ZM11.78,82.18a87.55,87.55,0,0,1,24.74-1.77c-3.24-2.94-10.3-8-18.55-8A26.41,26.41,0,0,0,0,79.53S6.77,91.9,18,91.9c8.25,0,15.31-5,18.55-8A86.8,86.8,0,0,1,11.78,82.18Zm159.65-20c-8,0-15,5-18.26,7.95a84.7,84.7,0,0,1,24.44,1.77c-7.65,2.06-16.49,2.36-24.44,1.77,3.24,2.94,10.31,8,18.26,8,11.19,0,17.38-10,17.38-10S182.62,62.15,171.43,62.15ZM75.7,121.35c-3.54,7.07-8.25,14.73-13.84,20.33a89.31,89.31,0,0,1,10.6-22.09c-3.83,1.47-11.78,5-15.91,12.07A13.92,13.92,0,0,0,58,148.45a13.85,13.85,0,0,0,15.31-7.07C77.47,134.32,76.58,125.77,75.7,121.35ZM133.14,10.9A90.84,90.84,0,0,1,122.24,33c4.12-1.47,12.08-5,16.2-11.78C144,11.49,140.5,0,140.5,0s-13.25,1.77-18.85,11.49c-4.12,7.07-3.24,15.61-2.36,19.73A72.94,72.94,0,0,1,133.14,10.9Zm-76,56.85c-1.76,3.53.3,8.24,5,10.6,4.42,2.06,9.43,1.18,11.19-2.36,1.77-3.83-.29-8.54-4.71-10.6C64.21,63,58.91,64.21,57.14,67.75Zm74.52.59c-6.77,3.53-10,10.89-7.07,16.2,3,5.59,10.61,7.07,17.68,3.53,6.77-3.53,10-10.9,7.07-16.2C146.39,66.27,138.73,64.8,131.66,68.34Zm56,25.33a109.24,109.24,0,0,0-32.7,4.71,13.59,13.59,0,0,1,2.95,10,17,17,0,0,1-14.43-.88l-3.54-2.65c-12.66,6.48-21.5,15-24.45,21.5C109,138.73,126.07,200,126.07,200h-51S92.49,137.56,91,126.36c-1.18-11.49-13-40.65-55.08-39.47,20.91-8,44.18,1.48,44.18,1.48S82.18,66,66.27,51C83.36,61,92.78,86,97.5,103.68c8-24.74,20.91-52.13,42.12-65.09-24.45,23.56-20.62,58-20.62,58S154.93,81.89,187.63,93.67Zm-36.53,9.72s-1.17-.89-2.94-2.36a4.12,4.12,0,0,1-1.77.59A39.88,39.88,0,0,0,151.1,103.39ZM101.33,69.51c5.3,0,9.42-5.3,9.42-12.07,0-6.48-4.12-11.78-9.42-11.78-5,0-9.14,5.3-9.14,11.78C92.19,64.21,96.32,69.51,101.33,69.51Z"/></g></g></svg>